<svg width="150" height="150" viewBox="0 0 150 150" fill="none" xmlns="http://www.w3.org/2000/svg">
<path d="M98.8157 67.9984C100.832 67.9984 102.617 68.3787 104.125 69.1296C105.634 69.8804 106.916 70.8973 107.943 72.1501C108.98 73.4127 109.799 74.8839 110.38 76.5249C110.895 77.9791 111.239 79.5214 111.41 81.0999H85.8468C86.0278 79.4009 86.4551 77.7787 87.1111 76.2693C87.8602 74.5803 88.8106 73.1044 89.9359 71.89C91.0636 70.676 92.4008 69.7159 93.9149 69.0291C95.4152 68.3446 97.0639 67.9984 98.8157 67.9984ZM115.204 75.6192C114.396 73.2411 113.219 71.1209 111.698 69.3191C110.182 67.5308 108.327 66.1072 106.187 65.0863C104.039 64.0635 101.592 63.546 98.9145 63.546C96.3315 63.546 93.911 64.0735 91.7163 65.1207C89.5398 66.164 87.6189 67.5958 86.0078 69.3794C84.397 71.1574 83.1183 73.2775 82.2064 75.6753C81.2921 78.0637 80.8313 80.6491 80.8313 83.3672L80.8575 85.4814H116.255L116.349 84.978C116.402 84.6518 116.426 84.3941 116.426 84.1969V83.4395C116.426 80.6405 116.015 78.0111 115.204 75.6192Z" fill="#FCFAF7"/>
<path d="M103.477 100.487L103.077 100.902C101.577 102.489 99.8326 103.838 97.8917 104.909C95.9891 105.96 93.6128 106.495 90.8323 106.495C89.0784 106.495 87.3853 106.182 85.7965 105.566C84.2019 104.949 82.7683 104.035 81.5399 102.855C80.2873 101.659 79.2323 100.189 78.4029 98.4937C77.5571 96.7745 77.0798 94.8654 76.9429 92.6627L76.947 41.5064H71.9877V64.9921H40.8124V41.5064H35.8533V93.2908H40.8124V69.5888H71.9877L72.0038 92.6989C72.1325 95.0832 72.6139 97.2659 73.4738 99.3719C74.4684 101.808 75.8414 103.914 77.5533 105.638C79.2646 107.377 81.278 108.735 83.5371 109.673C85.8027 110.611 88.2067 111.09 90.6874 111.09C94.2955 111.09 97.3783 110.398 99.8529 109.033C102.293 107.679 104.498 105.952 106.411 103.89L106.822 103.439L103.477 100.487Z" fill="#FCFAF7"/>
<path d="M6.69363 88.8975L4.22301 90.5244L7.12653 91.1002L6.69363 88.8975ZM2.19349 91.7688L1.86113 90.0898L9.51254 84.8936L9.88713 86.8024L8.17559 87.9259L8.86402 91.4305L10.8738 91.8252L11.2382 93.6858L2.19349 91.7688Z" fill="#FCFAF7"/>
<path d="M4.78278 75.3314C4.78874 74.8744 4.68623 74.522 4.4727 74.2722C4.26124 74.0224 3.97344 73.896 3.60884 73.8898H3.58669C3.18397 73.884 2.88009 74.0068 2.67461 74.2601C2.46912 74.5138 2.36259 74.8705 2.3565 75.3293L2.32629 77.1737L4.75063 77.2181L4.78278 75.3314ZM0.618896 79.0061L0.681347 75.1465C0.699363 74.075 0.997392 73.2615 1.57929 72.6978C2.0687 72.2226 2.71696 71.9931 3.52021 72.0051L3.54454 72.0072C4.22898 72.0175 4.78278 72.1921 5.20765 72.5327C5.63449 72.875 5.94066 73.3159 6.13181 73.8575L9.18215 71.8441L9.14815 74.0165L6.41373 75.7825V75.8048L6.39157 77.2381L9.09581 77.2828L9.06551 79.1431L0.618896 79.0061Z" fill="#FCFAF7"/>
<path d="M10.7892 62.0079C10.6622 62.6142 10.4347 63.1534 10.1044 63.6269C9.77622 64.1 9.38167 64.4865 8.92039 64.7845C8.4574 65.0828 7.94415 65.2841 7.38024 65.3867C6.81645 65.4892 6.23855 65.481 5.6486 65.3582L5.62462 65.3523C5.03456 65.2277 4.50497 65.0058 4.03178 64.6878C3.56259 64.3657 3.16996 63.9751 2.85991 63.5161C2.54994 63.0547 2.33641 62.5398 2.22344 61.9638C2.109 61.3878 2.11887 60.7818 2.25385 60.1434C2.33238 59.7608 2.43915 59.4143 2.56784 59.1084C2.69871 58.8024 2.84589 58.5303 3.01097 58.2949C3.17616 58.0577 3.35928 57.8458 3.56259 57.6566C3.76602 57.4694 3.98332 57.3021 4.21096 57.1531L5.3042 58.5888C4.94386 58.853 4.64789 59.1304 4.41245 59.4325C4.17664 59.7329 4.01571 60.0929 3.92695 60.5079C3.85451 60.8561 3.85451 61.1885 3.92695 61.5121C3.99746 61.8365 4.1305 62.1287 4.32358 62.3908C4.51302 62.6541 4.75272 62.8778 5.03835 63.0591C5.32442 63.2422 5.64458 63.3712 6.00091 63.4456L6.02504 63.4517C6.37747 63.5237 6.72576 63.5361 7.06408 63.4838C7.40434 63.4315 7.71248 63.3268 7.99432 63.1675C8.27431 63.0065 8.51194 62.7934 8.71308 62.5292C8.91442 62.2635 9.04944 61.9517 9.12587 61.5976C9.22474 61.1239 9.22256 60.7071 9.11579 60.3448C9.01108 59.9803 8.84198 59.608 8.6124 59.2212L10.024 58.309C10.2073 58.5691 10.3662 58.8324 10.4992 59.0984C10.632 59.3664 10.7345 59.6462 10.8071 59.946C10.8797 60.2463 10.9159 60.564 10.9159 60.9002C10.9159 61.2367 10.8738 61.6052 10.7892 62.0079Z" fill="#FCFAF7"/>
<path d="M5.46939 49.5221L6.2124 47.8184L9.27491 49.1494L10.6422 46.0087L7.57759 44.6735L8.31863 42.9702L16.0645 46.3387L15.3236 48.0438L12.2145 46.6908L10.8474 49.8342L13.9564 51.1852L13.2155 52.8906L5.46939 49.5221Z" fill="#FCFAF7"/>
<path d="M12.4482 35.7916L13.465 34.2355L20.5327 38.8663L19.5159 40.4207L12.4482 35.7916Z" fill="#FCFAF7"/>
<path d="M21.0197 27.291L19.286 29.1896L18.0217 28.034L22.7395 22.863L24.0076 24.0189L22.2722 25.9174L27.2457 30.458L25.9931 31.8313L21.0197 27.291Z" fill="#FCFAF7"/>
<path d="M28.4095 17.769L33.4955 13.949L34.4882 15.2701L30.8699 17.9906L31.9006 19.3595L35.084 16.9676L36.0767 18.2883L32.8936 20.6802L33.9587 22.1L37.6252 19.3454L38.6179 20.6664L33.4855 24.5222L28.4095 17.769Z" fill="#FCFAF7"/>
<path d="M47.5941 15.8179C47.0363 16.0856 46.4686 16.2326 45.8946 16.2608C45.3168 16.289 44.769 16.2102 44.2538 16.0271C43.7363 15.8438 43.2652 15.5578 42.8382 15.1757C42.4111 14.7907 42.0691 14.3279 41.8054 13.7842L41.7952 13.7619C41.5336 13.2164 41.3867 12.6607 41.3543 12.0929C41.3199 11.5251 41.3905 10.9773 41.5677 10.4477C41.7408 9.92428 42.0206 9.44084 42.4073 9.00001C42.7941 8.55918 43.2811 8.19652 43.8671 7.91468C44.2235 7.74364 44.5618 7.61491 44.8839 7.53232C45.204 7.44945 45.5081 7.40126 45.7958 7.38921C46.0859 7.37305 46.3639 7.39126 46.6378 7.43535C46.9094 7.48384 47.1774 7.55231 47.4331 7.64283L46.9599 9.38235C46.5329 9.25774 46.1282 9.19514 45.7476 9.19132C45.3653 9.18721 44.9865 9.27802 44.6021 9.46317C44.282 9.61599 44.0161 9.8217 43.8027 10.075C43.5911 10.329 43.4383 10.6129 43.3495 10.925C43.257 11.235 43.2267 11.5612 43.2549 11.9016C43.2872 12.2378 43.3777 12.5698 43.535 12.8964L43.5447 12.9184C43.7019 13.2446 43.9053 13.5285 44.1551 13.7639C44.4028 14.0017 44.6764 14.183 44.9703 14.3076C45.2683 14.4325 45.5845 14.4927 45.9149 14.4869C46.249 14.4848 46.5794 14.4043 46.9056 14.2474C47.3402 14.0361 47.6685 13.7821 47.8942 13.478C48.1176 13.172 48.313 12.8097 48.4779 12.3909L50.0607 12.9545C49.9658 13.2587 49.8535 13.5447 49.7245 13.8124C49.5935 14.0822 49.4345 14.3358 49.2393 14.5753C49.0477 14.8149 48.8185 15.0385 48.5505 15.2439C48.2827 15.4473 47.9647 15.6386 47.5941 15.8179Z" fill="#FCFAF7"/>
<path d="M56.5603 5.18657L54.0755 5.83458L53.6406 4.17765L60.4158 2.41169L60.849 4.06892L58.3583 4.71929L60.0576 11.233L58.2596 11.7041L56.5603 5.18657Z" fill="#FCFAF7"/>
<path d="M71.9977 9.56374C70.8624 9.63222 69.954 9.37272 69.2633 8.78465C68.5789 8.19864 68.1962 7.2826 68.1178 6.03622L67.8318 1.2197L69.6862 1.10714L69.9722 5.87722C70.0125 6.56962 70.2058 7.07922 70.5482 7.40955C70.8924 7.73959 71.3496 7.88653 71.9195 7.85244C72.4873 7.81805 72.9222 7.62291 73.2241 7.26643C73.5241 6.90789 73.6552 6.3927 73.6146 5.71794L73.3225 0.887612L75.1772 0.776816L75.4632 5.53485C75.5034 6.17699 75.4532 6.7389 75.3059 7.22411C75.1652 7.70932 74.9398 8.11812 74.6356 8.45638C74.3335 8.79259 73.9591 9.05237 73.51 9.23576C73.0671 9.42091 72.5575 9.52965 71.9977 9.56374Z" fill="#FCFAF7"/>
<path d="M86.4728 5.7101C86.9262 5.77446 87.2883 5.71422 87.5601 5.53318C87.8361 5.35362 87.9989 5.08177 88.0474 4.72323L88.0515 4.69913C88.1059 4.30268 88.0174 3.9844 87.7958 3.74899C87.5663 3.51535 87.2263 3.36636 86.7731 3.30376L84.9425 3.04602L84.6066 5.44825L86.4728 5.7101ZM83.334 1.12723L87.1575 1.66504C88.2208 1.81198 88.9899 2.20844 89.4792 2.85087C89.8901 3.39662 90.0391 4.06904 89.9303 4.86459L89.9283 4.88868C89.8316 5.56521 89.588 6.09685 89.1991 6.47509C88.8065 6.85567 88.3313 7.10753 87.7676 7.23243L89.3963 10.5063L87.2463 10.2042L85.8265 7.27652L85.8027 7.2727L84.3768 7.07315L84.0065 9.75105L82.1661 9.49331L83.334 1.12723Z" fill="#FCFAF7"/>
<path d="M97.9843 4.01864L103.997 6.10258L103.451 7.66489L99.1763 6.18105L98.6126 7.80008L102.376 9.1067L101.834 10.6693L98.0687 9.36238L97.4909 11.0396L101.824 12.5419L101.28 14.1042L95.2138 11.998L97.9843 4.01864Z" fill="#FCFAF7"/>
<path d="M76.1076 149.315C48.6551 149.315 23.7764 134.153 11.1777 109.741L13.5597 108.513C25.6951 132.027 49.6619 146.637 76.1076 146.637C114.894 146.637 146.449 115.085 146.449 76.2999C146.449 52.4601 134.518 30.4297 114.531 17.3702L115.997 15.1273C136.742 28.6843 149.129 51.5514 149.129 76.2999C149.129 116.563 116.372 149.315 76.1076 149.315Z" fill="#FCFAF7"/>
</svg>
