<svg width="100" height="100" viewBox="0 0 100 100" fill="none" xmlns="http://www.w3.org/2000/svg">
<g clip-path="url(#clip0_186_843)">
<path d="M65.8772 45.3323C67.221 45.3323 68.4116 45.5858 69.4169 46.0864C70.4224 46.587 71.2776 47.2649 71.962 48.1001C72.6532 48.9418 73.1996 49.9226 73.5864 51.0167C73.9301 51.9861 74.1595 53.0143 74.2735 54.0666H57.2312C57.3519 52.934 57.6368 51.8525 58.0741 50.8462C58.5735 49.7202 59.2071 48.7363 59.9573 47.9267C60.709 47.1174 61.6005 46.4773 62.6099 46.0194C63.6101 45.5631 64.7092 45.3323 65.8772 45.3323ZM76.8025 50.4128C76.2643 48.8274 75.479 47.414 74.4655 46.2128C73.4547 45.0206 72.2183 44.0715 70.7913 43.3909C69.3593 42.7091 67.7282 42.364 65.943 42.364C64.221 42.364 62.6074 42.7157 61.1442 43.4138C59.6932 44.1093 58.4126 45.0639 57.3386 46.2529C56.2647 47.4383 55.4122 48.8517 54.8043 50.4502C54.1947 52.0425 53.8875 53.7661 53.8875 55.5782L53.905 56.9877H77.5033L77.5662 56.652C77.6013 56.4346 77.6174 56.2627 77.6174 56.1313V55.6264C77.6174 53.7604 77.3437 52.0074 76.8025 50.4128Z" fill="#1D1E1F"/>
<path d="M68.9847 66.9916L68.7177 67.268C67.7177 68.3258 66.5551 69.2251 65.2612 69.9393C63.9928 70.6399 62.4085 70.9969 60.5549 70.9969C59.3856 70.9969 58.2569 70.7876 57.1977 70.377C56.1346 69.9661 55.1789 69.3568 54.3599 68.5699C53.5249 67.7727 52.8215 66.7927 52.2686 65.6624C51.7047 64.5163 51.3866 63.2435 51.2953 61.7751L51.298 27.6708H47.9918V43.328H27.2083V27.6708H23.9022V62.1938H27.2083V46.3924H47.9918L48.0026 61.7992C48.0884 63.3887 48.4093 64.8438 48.9826 66.2478C49.6456 67.8719 50.5609 69.2761 51.7022 70.4252C52.8431 71.5848 54.1853 72.4896 55.6914 73.115C57.2018 73.7408 58.8045 74.0602 60.4583 74.0602C62.8636 74.0602 64.9189 73.5984 66.5686 72.6885C68.1955 71.7862 69.6654 70.6344 70.9404 69.2598L71.2143 68.9592L68.9847 66.9916Z" fill="#1D1E1F"/>
<path d="M4.46242 59.2649L2.81534 60.3495L4.75102 60.7333L4.46242 59.2649ZM1.46232 61.1791L1.24075 60.0598L6.34169 56.5956L6.59142 57.8681L5.45039 58.6172L5.90935 60.9536L7.24922 61.2167L7.49216 62.4571L1.46232 61.1791Z" fill="#1D1E1F"/>
<path d="M3.18852 50.2208C3.1925 49.9161 3.12416 49.6812 2.9818 49.5147C2.84083 49.3482 2.64896 49.2639 2.4059 49.2598H2.39112C2.12265 49.2559 1.92006 49.3378 1.78307 49.5067C1.64608 49.6757 1.57506 49.9136 1.571 50.2194L1.55086 51.4491L3.16708 51.4786L3.18852 50.2208ZM0.412598 52.6706L0.454232 50.0976C0.466242 49.3832 0.664928 48.8409 1.05286 48.4651C1.37913 48.1483 1.8113 47.9953 2.34681 48.0033L2.36303 48.0047C2.81932 48.0116 3.18852 48.1279 3.47177 48.355C3.75633 48.5833 3.96044 48.8772 4.08787 49.2382L6.12143 47.896L6.09876 49.3442L4.27582 50.5216V50.5364L4.26105 51.492L6.06387 51.5217L6.04367 52.7619L0.412598 52.6706Z" fill="#1D1E1F"/>
<path d="M7.19279 41.3385C7.10815 41.7427 6.95648 42.1023 6.73628 42.4179C6.51748 42.7333 6.25445 42.991 5.94692 43.1896C5.63826 43.3885 5.2961 43.5227 4.92016 43.5911C4.5443 43.6595 4.15903 43.654 3.76573 43.5721L3.74975 43.5682C3.35637 43.4851 3.00331 43.3372 2.68785 43.1252C2.37506 42.9105 2.1133 42.6501 1.9066 42.344C1.69996 42.0364 1.5576 41.6932 1.48229 41.3092C1.40599 40.9251 1.41258 40.5212 1.50257 40.0956C1.55492 39.8405 1.6261 39.6095 1.71189 39.4056C1.79914 39.2016 1.89726 39.0202 2.00731 38.8632C2.11744 38.7051 2.23952 38.5639 2.37506 38.4377C2.51068 38.3129 2.65554 38.2014 2.80731 38.1021L3.53613 39.0592C3.2959 39.2353 3.09859 39.4203 2.94163 39.6217C2.78442 39.8219 2.67713 40.0619 2.61797 40.3385C2.56967 40.5707 2.56967 40.7923 2.61797 41.008C2.66497 41.2243 2.75366 41.4191 2.88239 41.5938C3.00868 41.7694 3.16848 41.9185 3.35889 42.0394C3.54961 42.1614 3.76305 42.2474 4.00061 42.297L4.01669 42.3011C4.25165 42.3491 4.48384 42.3574 4.70938 42.3225C4.93623 42.2876 5.14165 42.2179 5.32955 42.1117C5.5162 42.0043 5.67463 41.8623 5.80872 41.6861C5.94295 41.509 6.03295 41.3011 6.08391 41.065C6.14982 40.7492 6.14837 40.4714 6.07719 40.2298C6.00739 39.9869 5.89465 39.7386 5.74159 39.4808L6.68264 38.8726C6.80486 39.046 6.9108 39.2216 6.99949 39.3989C7.08797 39.5776 7.15635 39.7641 7.20474 39.9639C7.25313 40.1642 7.27723 40.376 7.27723 40.6001C7.27723 40.8244 7.24922 41.0701 7.19279 41.3385Z" fill="#1D1E1F"/>
<path d="M3.64626 33.0147L4.1416 31.8789L6.18327 32.7663L7.09483 30.6724L5.05173 29.7823L5.54575 28.6467L10.7096 30.8924L10.2157 32.0292L8.14303 31.1272L7.23158 33.2228L9.30427 34.1234L8.81035 35.2604L3.64626 33.0147Z" fill="#1D1E1F"/>
<path d="M8.29879 23.8611L8.97669 22.8237L13.6885 25.9109L13.0106 26.9471L8.29879 23.8611Z" fill="#1D1E1F"/>
<path d="M14.0131 18.194L12.8574 19.4596L12.0145 18.6893L15.1597 15.242L16.0051 16.0125L14.8482 17.2782L18.1638 20.3052L17.3288 21.2208L14.0131 18.194Z" fill="#1D1E1F"/>
<path d="M18.9397 11.846L22.3303 9.29939L22.9922 10.1801L20.5799 11.9937L21.267 12.9064L23.3893 11.3117L24.0511 12.1922L21.9291 13.7869L22.6391 14.7334L25.0835 12.897L25.7453 13.7776L22.3237 16.3482L18.9397 11.846Z" fill="#1D1E1F"/>
<path d="M31.7294 10.5453C31.3576 10.7237 30.979 10.8217 30.5964 10.8405C30.2112 10.8593 29.846 10.8068 29.5025 10.6848C29.1575 10.5625 28.8434 10.3719 28.5588 10.1172C28.2741 9.8605 28.046 9.55192 27.8703 9.18946L27.8634 9.17457C27.6891 8.81093 27.5911 8.44044 27.5695 8.06191C27.5466 7.68339 27.5936 7.31818 27.7118 6.96513C27.8272 6.61618 28.0137 6.29389 28.2715 6.00001C28.5294 5.70612 28.854 5.46434 29.2447 5.27645C29.4824 5.16242 29.7079 5.0766 29.9226 5.02155C30.136 4.9663 30.3387 4.93417 30.5306 4.92614C30.7239 4.91536 30.9093 4.92751 31.0919 4.9569C31.2729 4.98922 31.4516 5.03488 31.6221 5.09522L31.3066 6.2549C31.0219 6.17183 30.7521 6.13009 30.4984 6.12755C30.2435 6.1248 29.991 6.18535 29.7347 6.30878C29.5213 6.41066 29.344 6.5478 29.2018 6.71669C29.0607 6.88597 28.9589 7.07524 28.8997 7.28331C28.838 7.49001 28.8178 7.70749 28.8366 7.93437C28.8581 8.15851 28.9185 8.37989 29.0233 8.59757L29.0298 8.61226C29.1346 8.82974 29.2702 9.019 29.4367 9.17594C29.6019 9.33444 29.7843 9.45533 29.9802 9.5384C30.1789 9.62167 30.3897 9.66183 30.6099 9.65791C30.8327 9.65654 31.0529 9.60286 31.2704 9.49824C31.5601 9.35737 31.779 9.18809 31.9295 8.9853C32.0784 8.78135 32.2087 8.53978 32.3186 8.26058L33.3738 8.63636C33.3105 8.83914 33.2357 9.02979 33.1497 9.20827C33.0623 9.38813 32.9563 9.55721 32.8262 9.71689C32.6985 9.87657 32.5456 10.0257 32.367 10.1626C32.1885 10.2982 31.9765 10.4257 31.7294 10.5453Z" fill="#1D1E1F"/>
<path d="M37.7069 3.45768L36.0503 3.88969L35.7604 2.78507L40.2772 1.60776L40.566 2.71258L38.9056 3.14616L40.0384 7.48864L38.8397 7.8027L37.7069 3.45768Z" fill="#1D1E1F"/>
<path d="M47.9984 6.37577C47.2416 6.42142 46.636 6.24842 46.1756 5.85638C45.7192 5.46571 45.4642 4.85501 45.4118 4.02409L45.2212 0.813076L46.4575 0.738036L46.6481 3.91809C46.675 4.37969 46.8039 4.71943 47.0321 4.93965C47.2616 5.15967 47.5664 5.25763 47.9463 5.2349C48.3248 5.21198 48.6148 5.08189 48.816 4.84423C49.0161 4.6052 49.1035 4.26175 49.0764 3.8119L48.8817 0.591685L50.1181 0.517821L50.3088 3.68984C50.3356 4.11794 50.3021 4.49255 50.204 4.81602C50.1101 5.13949 49.9598 5.41202 49.7571 5.63753C49.5557 5.86167 49.306 6.03486 49.0067 6.15712C48.7114 6.28055 48.3717 6.35304 47.9984 6.37577Z" fill="#1D1E1F"/>
<path d="M57.6485 3.80662C57.9508 3.84953 58.1922 3.80937 58.3734 3.68868C58.5574 3.56897 58.6659 3.38774 58.6983 3.14871L58.701 3.13264C58.7373 2.86834 58.6783 2.65615 58.5306 2.49922C58.3775 2.34346 58.1509 2.24413 57.8487 2.20239L56.6283 2.03057L56.4044 3.63205L57.6485 3.80662ZM55.556 0.751374L58.105 1.10991C58.8139 1.20787 59.3266 1.47218 59.6528 1.90047C59.9267 2.2643 60.0261 2.71258 59.9536 3.24295L59.9522 3.25901C59.8877 3.71003 59.7253 4.06446 59.4661 4.31661C59.2043 4.57033 58.8875 4.73824 58.5118 4.82151L59.5976 7.00412L58.1642 6.8027L57.2177 4.8509L57.2018 4.84835L56.2512 4.71532L56.0043 6.50059L54.7774 6.32876L55.556 0.751374Z" fill="#1D1E1F"/>
<path d="M65.3229 2.67909L69.3311 4.06839L68.9673 5.10993L66.1175 4.1207L65.7418 5.20005L68.2504 6.07114L67.8895 7.11287L65.3791 6.24158L64.9939 7.35973L67.8826 8.36129L67.5202 9.40283L63.4759 7.99864L65.3229 2.67909Z" fill="#1D1E1F"/>
<path d="M50.7384 99.5431C32.4367 99.5431 15.8509 89.4353 7.4518 73.1608L9.03977 72.3421C17.1301 88.0178 33.1079 97.7578 50.7384 97.7578C76.5958 97.7578 97.6328 76.7233 97.6328 50.8666C97.6328 34.9734 89.6785 20.2864 76.354 11.5801L77.3315 10.0848C91.1614 19.1228 99.4195 34.3675 99.4195 50.8666C99.4195 77.7087 77.5811 99.5431 50.7384 99.5431Z" fill="#1D1E1F"/>
</g>
<defs>
<clipPath id="clip0_186_843">
<rect width="100" height="100" fill="white"/>
</clipPath>
</defs>
</svg>
